<svg xmlns="http://www.w3.org/2000/svg" xmlns:xlink="http://www.w3.org/1999/xlink">

<symbol id="dribbble" fill-rule="evenodd" clip-rule="evenodd" stroke-linejoin="round" stroke-miterlimit="1.414"><path d="M8 16c-4.41 0-8-3.59-8-8s3.59-8 8-8 8 3.59 8 8-3.59 8-8 8zm6.747-6.905c-.234-.074-2.115-.635-4.257-.292.894 2.456 1.258 4.456 1.328 4.872 1.533-1.037 2.624-2.68 2.93-4.58zM10.67 14.3c-.102-.6-.5-2.688-1.46-5.18l-.044.014C5.312 10.477 3.93 13.15 3.806 13.4c1.158.905 2.614 1.444 4.194 1.444.947 0 1.85-.194 2.67-.543zm-7.747-1.72c.155-.266 2.03-3.37 5.555-4.51.09-.03.18-.056.27-.08-.173-.39-.36-.778-.555-1.16-3.413 1.02-6.723.977-7.023.97l-.003.208c0 1.755.665 3.358 1.756 4.57zM1.31 6.61c.307.005 3.122.017 6.318-.832-1.132-2.012-2.353-3.705-2.533-3.952-1.912.902-3.34 2.664-3.784 4.785zM6.4 1.368c.188.253 1.43 1.943 2.548 4 2.43-.91 3.46-2.293 3.582-2.468C11.323 1.827 9.736 1.176 8 1.176c-.55 0-1.087.066-1.6.19zm6.89 2.322c-.145.194-1.29 1.662-3.816 2.694.16.325.31.656.453.99.05.117.1.235.147.352 2.274-.286 4.533.172 4.758.22-.015-1.613-.59-3.094-1.543-4.257z"/></symbol>

<symbol id="facebook" fill-rule="evenodd" clip-rule="evenodd" stroke-linejoin="round" stroke-miterlimit="1.414"><path d="M15.117 0H.883C.395 0 0 .395 0 .883v14.234c0 .488.395.883.883.883h7.663V9.804H6.46V7.39h2.086V5.607c0-2.066 1.262-3.19 3.106-3.19.883 0 1.642.064 1.863.094v2.16h-1.28c-1 0-1.195.48-1.195 1.18v1.54h2.39l-.31 2.42h-2.08V16h4.077c.488 0 .883-.395.883-.883V.883C16 .395 15.605 0 15.117 0" fill-rule="nonzero"/></symbol>

<symbol id="flickr" fill-rule="evenodd" clip-rule="evenodd" stroke-linejoin="round" stroke-miterlimit="1.414"><path d="M0 8c0 2.05 1.662 3.71 3.71 3.71 2.05 0 3.713-1.66 3.713-3.71S5.76 4.29 3.71 4.29C1.663 4.29 0 5.95 0 8zm8.577 0c0 2.05 1.662 3.71 3.712 3.71C14.33 11.71 16 10.05 16 8s-1.662-3.71-3.71-3.71c-2.05 0-3.713 1.66-3.713 3.71z"/></symbol>

<symbol id="github" fill-rule="evenodd" clip-rule="evenodd" stroke-linejoin="round" stroke-miterlimit="1.414"><path d="M8 0C3.58 0 0 3.582 0 8c0 3.535 2.292 6.533 5.47 7.59.4.075.547-.172.547-.385 0-.19-.007-.693-.01-1.36-2.226.483-2.695-1.073-2.695-1.073-.364-.924-.89-1.17-.89-1.17-.725-.496.056-.486.056-.486.803.056 1.225.824 1.225.824.714 1.223 1.873.87 2.33.665.072-.517.278-.87.507-1.07-1.777-.2-3.644-.888-3.644-3.953 0-.873.31-1.587.823-2.147-.09-.202-.36-1.015.07-2.117 0 0 .67-.215 2.2.82.64-.178 1.32-.266 2-.27.68.004 1.36.092 2 .27 1.52-1.035 2.19-.82 2.19-.82.43 1.102.16 1.915.08 2.117.51.56.82 1.274.82 2.147 0 3.073-1.87 3.75-3.65 3.947.28.24.54.73.54 1.48 0 1.07-.01 1.93-.01 2.19 0 .21.14.46.55.38C13.71 14.53 16 11.53 16 8c0-4.418-3.582-8-8-8"/></symbol>

<symbol id="instagram" fill-rule="evenodd" clip-rule="evenodd" stroke-linejoin="round" stroke-miterlimit="1.414"><path d="M8 0C5.827 0 5.555.01 4.702.048 3.85.088 3.27.222 2.76.42c-.526.204-.973.478-1.417.923-.445.444-.72.89-.923 1.417-.198.51-.333 1.09-.372 1.942C.008 5.555 0 5.827 0 8s.01 2.445.048 3.298c.04.852.174 1.433.372 1.942.204.526.478.973.923 1.417.444.445.89.72 1.417.923.51.198 1.09.333 1.942.372.853.04 1.125.048 3.298.048s2.445-.01 3.298-.048c.852-.04 1.433-.174 1.942-.372.526-.204.973-.478 1.417-.923.445-.444.72-.89.923-1.417.198-.51.333-1.09.372-1.942.04-.853.048-1.125.048-3.298s-.01-2.445-.048-3.298c-.04-.852-.174-1.433-.372-1.942-.204-.526-.478-.973-.923-1.417-.444-.445-.89-.72-1.417-.923-.51-.198-1.09-.333-1.942-.372C10.445.008 10.173 0 8 0zm0 1.44c2.136 0 2.39.01 3.233.048.78.036 1.203.166 1.485.276.374.145.64.318.92.598.28.28.453.546.598.92.11.282.24.705.276 1.485.038.844.047 1.097.047 3.233s-.01 2.39-.05 3.233c-.04.78-.17 1.203-.28 1.485-.15.374-.32.64-.6.92-.28.28-.55.453-.92.598-.28.11-.71.24-1.49.276-.85.038-1.1.047-3.24.047s-2.39-.01-3.24-.05c-.78-.04-1.21-.17-1.49-.28-.38-.15-.64-.32-.92-.6-.28-.28-.46-.55-.6-.92-.11-.28-.24-.71-.28-1.49-.03-.84-.04-1.1-.04-3.23s.01-2.39.04-3.24c.04-.78.17-1.21.28-1.49.14-.38.32-.64.6-.92.28-.28.54-.46.92-.6.28-.11.7-.24 1.48-.28.85-.03 1.1-.04 3.24-.04zm0 2.452c-2.27 0-4.108 1.84-4.108 4.108 0 2.27 1.84 4.108 4.108 4.108 2.27 0 4.108-1.84 4.108-4.108 0-2.27-1.84-4.108-4.108-4.108zm0 6.775c-1.473 0-2.667-1.194-2.667-2.667 0-1.473 1.194-2.667 2.667-2.667 1.473 0 2.667 1.194 2.667 2.667 0 1.473-1.194 2.667-2.667 2.667zm5.23-6.937c0 .53-.43.96-.96.96s-.96-.43-.96-.96.43-.96.96-.96.96.43.96.96z"/></symbol>

<symbol id="linkedin" fill-rule="evenodd" clip-rule="evenodd" stroke-linejoin="round" stroke-miterlimit="1.414"><path d="M13.632 13.635h-2.37V9.922c0-.886-.018-2.025-1.234-2.025-1.235 0-1.424.964-1.424 1.96v3.778h-2.37V6H8.51v1.04h.03c.318-.6 1.092-1.233 2.247-1.233 2.4 0 2.845 1.58 2.845 3.637v4.188zM3.558 4.955c-.762 0-1.376-.617-1.376-1.377 0-.758.614-1.375 1.376-1.375.76 0 1.376.617 1.376 1.375 0 .76-.617 1.377-1.376 1.377zm1.188 8.68H2.37V6h2.376v7.635zM14.816 0H1.18C.528 0 0 .516 0 1.153v13.694C0 15.484.528 16 1.18 16h13.635c.652 0 1.185-.516 1.185-1.153V1.153C16 .516 15.467 0 14.815 0z" fill-rule="nonzero"/></symbol>

<symbol id="pinterest" fill-rule="evenodd" clip-rule="evenodd" stroke-linejoin="round" stroke-miterlimit="1.414"><path d="M8 0C3.582 0 0 3.582 0 8c0 3.39 2.108 6.285 5.084 7.45-.07-.633-.133-1.604.028-2.295.146-.625.938-3.977.938-3.977s-.24-.48-.24-1.188c0-1.11.646-1.943 1.448-1.943.683 0 1.012.513 1.012 1.127 0 .687-.436 1.713-.662 2.664-.19.797.4 1.445 1.185 1.445 1.42 0 2.514-1.498 2.514-3.662 0-1.91-1.376-3.25-3.342-3.25-2.276 0-3.61 1.71-3.61 3.47 0 .69.263 1.43.593 1.83.066.08.075.15.057.23-.06.25-.196.8-.223.91-.035.15-.115.18-.268.11C3.516 10.46 2.89 9 2.89 7.82c0-2.52 1.834-4.84 5.287-4.84 2.774 0 4.932 1.98 4.932 4.62 0 2.76-1.74 4.98-4.16 4.98-.81 0-1.57-.42-1.84-.92l-.5 1.9c-.18.698-.67 1.57-1 2.1.75.23 1.54.357 2.37.357 4.41 0 8-3.58 8-8s-3.59-8-8-8z" fill-rule="nonzero"/></symbol>

<symbol id="rss" fill-rule="evenodd" clip-rule="evenodd" stroke-linejoin="round" stroke-miterlimit="1.414"><path d="M12.8 16C12.8 8.978 7.022 3.2 0 3.2V0c8.777 0 16 7.223 16 16h-3.2zM2.194 11.61c1.21 0 2.195.985 2.195 2.196 0 1.21-.99 2.194-2.2 2.194C.98 16 0 15.017 0 13.806c0-1.21.983-2.195 2.194-2.195zM10.606 16h-3.11c0-4.113-3.383-7.497-7.496-7.497v-3.11c5.818 0 10.606 4.79 10.606 10.607z"/></symbol>

<symbol id="stackoverflow" class="svg-icon" fill-rule="evenodd" clip-rule="evenodd" stroke-linejoin="round" stroke-miterlimit="1.414"><path d="M12.658 14.577v-4.27h1.423V16H1.23v-5.693h1.42v4.27h10.006zm-8.583-1.423h7.16V11.73h-7.16v1.424zm.173-3.235l6.987 1.46.3-1.38L4.55 8.54l-.302 1.38zm.906-3.37l6.47 3.02.602-1.3-6.47-3.02-.602 1.29zm1.81-3.19l5.478 4.57.906-1.08L7.87 2.28l-.9 1.078zM10.502 0L9.338.863l4.27 5.735 1.164-.862L10.5 0z"/></symbol>

<symbol id="twitter" fill-rule="evenodd" clip-rule="evenodd" stroke-linejoin="round" stroke-miterlimit="1.414"><path d="M16 3.038c-.59.26-1.22.437-1.885.517.677-.407 1.198-1.05 1.443-1.816-.634.37-1.337.64-2.085.79-.598-.64-1.45-1.04-2.396-1.04-1.812 0-3.282 1.47-3.282 3.28 0 .26.03.51.085.75-2.728-.13-5.147-1.44-6.766-3.42C.83 2.58.67 3.14.67 3.75c0 1.14.58 2.143 1.46 2.732-.538-.017-1.045-.165-1.487-.41v.04c0 1.59 1.13 2.918 2.633 3.22-.276.074-.566.114-.865.114-.21 0-.41-.02-.61-.058.42 1.304 1.63 2.253 3.07 2.28-1.12.88-2.54 1.404-4.07 1.404-.26 0-.52-.015-.78-.045 1.46.93 3.18 1.474 5.04 1.474 6.04 0 9.34-5 9.34-9.33 0-.14 0-.28-.01-.42.64-.46 1.2-1.04 1.64-1.7z" fill-rule="nonzero"/></symbol>

<symbol id="youtube" fill-rule="evenodd" clip-rule="evenodd" stroke-linejoin="round" stroke-miterlimit="1.414"><path d="M0 7.345c0-1.294.16-2.59.16-2.59s.156-1.1.636-1.587c.608-.637 1.408-.617 1.764-.684C3.84 2.36 8 2.324 8 2.324s3.362.004 5.6.166c.314.038.996.04 1.604.678.48.486.636 1.588.636 1.588S16 6.05 16 7.346v1.258c0 1.296-.16 2.59-.16 2.59s-.156 1.102-.636 1.588c-.608.638-1.29.64-1.604.678-2.238.162-5.6.166-5.6.166s-4.16-.037-5.44-.16c-.356-.067-1.156-.047-1.764-.684-.48-.487-.636-1.587-.636-1.587S0 9.9 0 8.605v-1.26zm6.348 2.73V5.58l4.323 2.255-4.32 2.24z"/></symbol>

<symbol id="mastodon" fill-rule="evenodd" clip-rule="evenodd" stroke-linejoin="round" stroke-miterlimit="1.414">
  <path transform="scale(0.07)" d="M211.80734 139.0875c-3.18125 16.36625-28.4925 34.2775-57.5625 37.74875-15.15875 1.80875-30.08375 3.47125-45.99875 2.74125-26.0275-1.1925-46.565-6.2125-46.565-6.2125 0 2.53375.15625 4.94625.46875 7.2025 3.38375 25.68625 25.47 27.225 46.39125 27.9425 21.11625.7225 39.91875-5.20625 39.91875-5.20625l.8675 19.09s-14.77 7.93125-41.08125 9.39c-14.50875.7975-32.52375-.365-53.50625-5.91875C9.23234 213.82 1.40609 165.31125.20859 116.09125c-.365-14.61375-.14-28.39375-.14-39.91875 0-50.33 32.97625-65.0825 32.97625-65.0825C49.67234 3.45375 78.20359.2425 107.86484 0h.72875c29.66125.2425 58.21125 3.45375 74.8375 11.09 0 0 32.975 14.7525 32.975 65.0825 0 0 .41375 37.13375-4.59875 62.915"/>
  <path transform="scale(0.07)" fill="#FFF" d="M177.50984 80.077v60.94125h-24.14375v-59.15c0-12.46875-5.24625-18.7975-15.74-18.7975-11.6025 0-17.4175 7.5075-17.4175 22.3525v32.37625H96.20734V85.42325c0-14.845-5.81625-22.3525-17.41875-22.3525-10.49375 0-15.74 6.32875-15.74 18.7975v59.15H38.90484V80.077c0-12.455 3.17125-22.3525 9.54125-29.675 6.56875-7.3225 15.17125-11.07625 25.85-11.07625 12.355 0 21.71125 4.74875 27.8975 14.2475l6.01375 10.08125 6.015-10.08125c6.185-9.49875 15.54125-14.2475 27.8975-14.2475 10.6775 0 19.28 3.75375 25.85 11.07625 6.36875 7.3225 9.54 17.22 9.54 29.675"/>
</symbol>

<symbol id="microdotblog" fill-rule="evenodd" clip-rule="evenodd" stroke-linejoin="round" stroke-miterlimit="1.414">
        <path d="M13.8958184,12.3539692 C13.7934913,12.5766333 13.7214973,12.7460692 13.6798363,12.8622768 C13.534018,13.2690171 13.4876062,13.5959963 13.4737723,13.8031622 C13.4047037,14.8374843 13.8695637,15.452098 13.9792411,15.6152902 C14.143626,15.8598834 14.2103299,15.996999 14.1793527,16.0266369 C14.1187128,16.1331597 13.9329861,16.1331597 13.6221726,16.0266369 C13.1559524,15.8668527 11.8671503,15.3666667 11.3815104,14.6616443 C11.1859547,14.3777486 11.0620507,14.2565499 10.9838025,14.2130531 C10.0617698,14.5547858 9.05472096,14.7428571 8,14.7428571 C3.581722,14.7428571 0,11.4425562 0,7.37142857 C0,3.30030099 3.581722,0 8,0 C12.418278,0 16,3.30030099 16,7.37142857 C16,9.29250872 15.2024583,11.041949 13.8958184,12.3539692 Z M7.94285714,9.78095238 C9.51605596,10.7990263 10.3706771,11.2483272 10.5067204,11.1288551 C10.6427638,11.0093829 10.4795457,10.0577483 10.0170661,8.27395135 C11.4827084,7.15954158 12.1741114,6.48559023 12.0912751,6.2520973 C12.0084388,6.01860437 11.0529434,5.87976276 9.22478879,5.83557246 C8.61970046,4.10392098 8.19238991,3.23809524 7.94285714,3.23809524 C7.69332437,3.23809524 7.26601382,4.10392098 6.6609255,5.83557246 C4.82960347,5.88951121 3.87410803,6.02835282 3.7944392,6.2520973 C3.71477036,6.47584178 4.40617335,7.14979313 5.86864817,8.27395135 C5.36780472,9.99753359 5.20458662,10.9491682 5.37899385,11.1288551 C5.55340109,11.308542 6.40802218,10.8592411 7.94285714,9.78095238 Z"></path>
</symbol>

<symbol id="telegram" fill-rule="evenodd" clip-rule="evenodd" stroke-linejoin="round" stroke-miterlimit="1.414" viewBox="0 0 1792 1792">
        <path d="M1189 1307l147-693q9-44-10.5-63t-51.5-7l-864 333q-29 11-39.5 25t-2.5 26.5 32 19.5l221 69 513-323q21-14 32-6 7 5-4 15l-415 375-16 228q23 0 45-22l108-104 224 165q64 36 81-38zm603-411q0 182-71 348t-191 286-286 191-348 71-348-71-286-191-191-286-71-348 71-348 191-286 286-191 348-71 348 71 286 191 191 286 71 348z"/>
</symbol>

<symbol id="keybase" fill-rule="evenodd" clip-rule="evenodd" stroke-linejoin="round" stroke-miterlimit="1.414" viewBox="0 0 50 50">
  <path d="M31.5 40A1.5 1.5 0 1 0 31.5 43 1.5 1.5 0 1 0 31.5 40zM20.5 40A1.5 1.5 0 1 0 20.5 43 1.5 1.5 0 1 0 20.5 40z"/><path fill="none" stroke="#000" stroke-linecap="round" stroke-miterlimit="10" stroke-width="2" d="M7.167 39c.289 2.14.955 4.157 1.91 6M19.25 13h-4.5C14.336 13 14 12.664 14 12.25v-4.5C14 7.336 14.336 7 14.75 7h4.5C19.664 7 20 7.336 20 7.75v3"/><path d="M25.5,23c-4.136,0-7.5-3.364-7.5-7.5c0-6.863,5.59-12.023,5.827-12.24c0.345-0.313,0.858-0.346,1.242-0.082c0.383,0.265,0.531,0.76,0.359,1.192C25,5.45,24.614,7.253,25.007,7.831C25.041,7.882,25.122,8,25.5,8c4.136,0,7.5,3.364,7.5,7.5S29.636,23,25.5,23z"/><path d="M44.938,34.942c-0.482-6.158-3.811-11.592-8.878-14.837c-0.041-0.026-0.081-0.054-0.122-0.08c-0.336-0.211-0.681-0.41-1.031-0.602c-0.123-0.068-0.244-0.137-0.369-0.202c-0.082-0.043-0.168-0.08-0.251-0.121c-0.63,1.531-1.649,2.862-2.932,3.871l3.352,3.352c0.391,0.391,0.391,1.023,0,1.414c-0.195,0.195-0.451,0.293-0.707,0.293s-0.512-0.098-0.707-0.293l-0.837-0.837l-1.808,1.808C30.453,28.902,30.197,29,29.941,29s-0.512-0.098-0.707-0.293c-0.391-0.391-0.391-1.023,0-1.414l1.808-1.808L30,24.443l-1.293,1.293c-0.195,0.195-0.451,0.293-0.707,0.293s-0.512-0.098-0.707-0.293c-0.236-0.236-0.311-0.557-0.263-0.862C26.532,24.955,26.021,25,25.5,25c-4.033,0-7.478-2.53-8.854-6.083C9.218,22.402,5,30.302,5,41v3l1.8-2.4c1.86-2.48,4.12-4.968,6.266-6.95c-0.528,1.41-0.882,2.821-1.058,4.226l-0.314,2.514l1.947-1.622C13.697,39.721,19.437,35,26,35c3.219,0,4.979,0.298,6.531,0.562C33.861,35.787,35.118,36,37,36c3.1,0,4.797-1.585,5.537-3.485c0.197,0.844,0.336,1.707,0.407,2.586C42.98,35.564,43,36.03,43,36.5c0,2.818-0.662,5.522-1.968,8.04c-0.254,0.49-0.063,1.094,0.427,1.348C41.606,45.964,41.764,46,41.919,46c0.361,0,0.711-0.196,0.889-0.54C44.263,42.656,45,39.642,45,36.5C45,35.977,44.979,35.457,44.938,34.942z"/>
</symbol>

<symbol id="devto" fill-rule="evenodd" clip-rule="evenodd" stroke-linejoin="round" stroke-miterlimit="1.414">
  <path transform="scale(0.039)" d="M10.5 2.5C5.6 4.2 2.4 7.8 1 12.9.3 15.6.1 77.2.2 207.1.5 396.6.5 397.5 2.5 401c1.2 1.9 3.6 4.3 5.5 5.5 3.5 2 4.2 2 196 2s192.5 0 196-2c1.9-1.2 4.3-3.6 5.5-5.5 2-3.5 2-4.2 2-196s0-192.5-2-196c-1.2-1.9-3.6-4.3-5.5-5.5-3.5-2-4.4-2-194.5-2.2-162.9-.2-191.6 0-195 1.2zm96.8 124c9 1.9 15.5 5.6 22.2 12.6 6.1 6.4 9.9 13.7 11.5 21.9 1.3 6.9 1.3 81.1 0 88.1-3.4 18.2-18.9 32.4-38.1 34.9-4 .5-17.4 1-29.6 1H51V125h24.8c17.6 0 26.6.4 31.5 1.5zm130.7 13V154h-51v36h31v29h-31l.2 18.2.3 18.3 25.3.3 25.2.2v29h-29.5c-32.8 0-37.9-.6-43.1-5.2-7.3-6.4-6.9-2.3-7.2-72.6-.2-43.8.1-64.5.8-67.3 1.4-5.2 7.3-11.6 12.5-13.4 3.1-1.1 10.9-1.4 35.3-1.5H238v14.5zm48.9-12.3c.4 1.3 6.8 25.6 14.2 54 7.4 28.5 13.6 51.2 13.8 50.5.3-.7 6.6-24.8 14.1-53.7l13.7-52.5 15.6-.3c11.8-.2 15.7.1 15.7 1s-34.6 132.4-36.6 139c-1.4 4.6-8.9 14-13.1 16.5-5.3 3-13.1 3.5-17.9 1-4.3-2.2-10-8.8-12.9-15-1.8-3.8-31.2-112-38-140l-.7-2.7h15.6c15.3 0 15.7 0 16.5 2.2z"/>
  <path transform="scale(0.039)" d="M80 205v51.2l10.3-.4c8.9-.3 10.8-.7 14.8-3 7.8-4.6 7.9-4.9 7.9-48.4 0-42.4 0-42.4-7.3-47.2-3.6-2.4-5.1-2.7-14.9-3.1l-10.8-.3V205z"/>
</symbol>

<symbol id="gitlab" fill-rule="evenodd" clip-rule="evenodd" stroke-linejoin="round" stroke-miterlimit="1.414" viewBox="0 0 1792 1792">
  <path d="M104 706l792 1015-868-630q-18-13-25-34.5t0-42.5l101-308zm462 0h660l-330 1015zm-198-612l198 612h-462l198-612q8-23 33-23t33 23zm1320 612l101 308q7 21 0 42.5t-25 34.5l-868 630 792-1015zm0 0h-462l198-612q8-23 33-23t33 23z"/>
</symbol>

<symbol xmlns="http://www.w3.org/2000/svg" id="pixiv" fill-rule="evenodd" clip-rule="evenodd" stroke-linejoin="round" stroke-miterlimit="1.414">
  <path class="cls-1" d="m14.02 2.599c-1.2569-1.0765-3.0166-1.6978-5.0624-1.6978-5.3314 0-8.9575 4.0334-8.9575 4.0334l1.0221 1.59s0.56521 0.046434 0.26579-0.88972c0.25832-0.47875 0.92708-1.3274 1.915-2.0714v10.674c-0.42591 0.11795-1.1518 0.45954-0.76803 0.83581h2.9355c0.38748-0.38001-0.19428-0.72907-0.56628-0.83581v-2.1349s1.9839 0.53159 4.1534 0.53159c1.9065 0 3.6405-0.55614 4.9305-1.5606 1.29-0.99806 2.1216-2.4893 2.1168-4.1935 0.0038-1.6732-0.72693-3.2088-1.9849-4.2815zm-1.5558 7.6392c-0.89185 0.86357-2.1893 1.4096-3.6859 1.4085-1.6695 0.0011-3.0748-0.31596-4.0024-0.76376 0 0 0.028287-0.51451 0.028287-2.516 0-2.1653-0.028287-5.4296-0.028287-5.4296 1.0178-0.70932 2.6692-1.1464 4.0024-1.1432 1.6204 0.00107 2.8928 0.60097 3.7526 1.512 0.85876 0.91587 1.3423 2.0447 1.3466 3.4596-0.0054 1.3786-0.52092 2.6019-1.4133 3.4724z" fill="#828282" fill-rule="evenodd" stroke-width=".53372"/>
</symbol>

<symbol xmlns="http://www.w3.org/2000/svg" id="bilibili" fill-rule="evenodd" clip-rule="evenodd" stroke-linejoin="round" stroke-miterlimit="1.414">
  <path class="cls-1" d="m16 14.249c-0.4343 0-0.8518 0.0025-1.2698-0.0039-0.03508-9.89e-4 -0.09634-0.05978-0.0998-0.09585-0.06374-0.65172-0.11957-1.3044-0.17886-1.9566-0.05534-0.60624-0.11265-1.2125-0.16898-1.8187-0.05781-0.62403-0.11512-1.2485-0.17293-1.8731-0.0034-0.036071-0.0099-0.07164-0.01828-0.12648 0.15415-0.017294 0.30386-0.047932 0.45307-0.047932 0.40564-4.943e-4 0.81079 0.010425 1.2159 0.019759 0.10425 0.00245 0.14921 0.07164 0.15514 0.16552 0.01284 0.19516 0.03113 0.39032 0.03211 0.58549 0.0034 0.91998-0.0039 1.84 0.0044 2.7604 0.0069 0.7347 0.03162 1.4694 0.04793 2.2041 9.88e-4 0.04594 0 0.09239 0 0.18726zm-0.11463-6.6014c-0.27669-0.012841-0.54102-0.025192-0.83846-0.039027v-2.1962c0.21492 0 0.44369-0.00245 0.67146 0.00147 0.11463 0.00196 0.17293 0.046448 0.17095 0.18083-0.0085 0.63638-0.0039 1.2733-0.0039 1.9096v0.14328zm-1.9477-2.2283c0.22728 0 0.45456 0.00392 0.68084-0.00147 0.10326-0.00294 0.14032 0.018287 0.13686 0.13241-0.0085 0.30584 0.0039 0.61217 0.0049 0.9185 0.0015 0.37945 4.94e-4 0.75891 4.94e-4 1.1364-0.22925 0.022727-0.43183 0.042989-0.64774 0.064722-0.05731-0.73717-0.11512-1.4753-0.1754-2.2505zm-0.34586 8.1202c-0.39181-0.03607-0.78411-0.06423-1.2065-0.09734-0.36068-3.5643-0.66652-7.1691-1.3671-10.753 0.22728-0.025695 0.45554-0.056321 0.6848-0.076583 0.26582-0.022727 0.53262-0.032613 0.79844-0.054849 0.22085-0.018275 0.30485 0.03953 0.31967 0.25099 0.04051 0.56622 0.07559 1.1329 0.11512 1.6996 0.05386 0.76583 0.10969 1.5321 0.16502 2.298 0.04002 0.55238 0.07609 1.1053 0.12204 1.6572 0.0494 0.60229 0.1082 1.2041 0.16305 1.8064 0.04051 0.44467 0.07807 0.88984 0.12253 1.334 0.04793 0.48074 0.10228 0.96148 0.15366 1.4422 0.01433 0.13785 0.03014 0.27619 0.03953 0.41454 0.0054 0.07609-0.03656 0.08547-0.11018 0.07856zm-2.3553-2.8291c0.04842 0.44813 0.09684 0.89626 0.15119 1.3439 0.05781 0.47975 0.12352 0.95852 0.18479 1.4373 0.01827 0.1423 0.03359 0.2841 0.05139 0.43776-0.45011 0.05632-0.89034 0.11117-1.3528 0.16848-0.38835-1.9383-0.77274-3.8598-1.165-5.8173 0.31769-0.04397 0.6265-0.092883 0.93629-0.12846 0.22234-0.025192 0.44714-0.02767 0.66998-0.048422 0.12106-0.011406 0.19813 0.031128 0.2174 0.14625 0.05089 0.30682 0.10376 0.61316 0.14081 0.92196 0.06175 0.51187 0.11018 1.0257 0.16601 1.5386zm-1.5302-5.5149c0.25149-0.00392 0.50248-0.010425 0.75298-0.00993 0.08202 0 0.12006 0.045454 0.12846 0.1334 0.06621 0.6843 0.13785 1.3686 0.21048 2.0781-0.26088 0.0163-0.52768 0.033594-0.80041 0.050887-0.097334-0.75244-0.19269-1.4871-0.29151-2.2525zm-1.0672 0.21196c0.24408-0.035569 0.48667-0.074608 0.72976-0.10525 0.10771-0.013835 0.087453 0.078557 0.094369 0.13637 0.028657 0.24457 0.051879 0.48963 0.078559 0.73421 0.041502 0.38341 0.084489 0.76682 0.1255 1.1502 0.00543 0.050397 4.941e-4 0.10179 4.941e-4 0.15662-0.20702 0.040021-0.41009 0.080041-0.62156 0.12104-0.13538-0.72876-0.26977-1.4531-0.40712-2.1932zm0.63835 6.9863c-0.11117 0.32906-0.33696 0.57808-0.62205 0.79498-0.66948 0.5094-1.3711 0.9684-2.1779 1.2288-0.56523 0.18232-1.1522 0.32066-1.7407 0.4091-0.77423 0.1166-1.5593 0.16848-2.3405 0.24111-0.16008 0.01483-0.32362-0.0064-0.48568-0.0059-0.083006 5.07e-4 -0.10425-0.0405-0.1082-0.11215-0.020751-0.34833-0.038045-0.69715-0.069172-1.045-0.040021-0.44912-0.086959-0.89725-0.13933-1.3449-0.073124-0.62304-0.15415-1.2456-0.23271-1.8676-0.083006-0.65466-0.16848-1.3088-0.2505-1.9635-0.080536-0.64082-0.15267-1.2831-0.23765-1.9235-0.09684-0.73174-0.20307-1.4625-0.30584-2.1942-0.12204-0.86464-0.28607-1.7209-0.51483-2.5653-0.010376-0.037052 0.021245-0.11611 0.052867-0.12846 0.75743-0.29843 1.5183-0.58796 2.2762-0.88391 0.25248-0.098819 0.27471-0.12698 0.27471 0.18133 0.00197 1.3241 0.0084 2.6488 0.028657 3.9729 0.010376 0.68925 0.037056 1.379 0.085476 2.0667 0.05929 0.83945 0.14971 1.6764 0.22777 2.5149 0.00346 0.03557 0.01927 0.07016 0.025693 0.09141 0.30337-0.01284 0.58351-0.03064 0.86415-0.03557 1.2095-0.01976 2.3943 0.12104 3.5238 0.56474 0.5514 0.21641 1.086 0.46641 1.5657 0.82018 0.39428 0.29003 0.48025 0.65021 0.29991 1.1838zm-5.0856-1.1641c0.11463 0.81968 0.22827 1.6329 0.34586 2.4734 0.7011-0.5173 1.3889-1.0252 2.0766-1.5326-0.086959-0.11907-1.9773-0.84439-2.4225-0.94073z" fill="#828282" fill-rule="evenodd" stroke-width=".49408"/>
</symbol>

<symbol xmlns="http://www.w3.org/2000/svg" id="zhihu" fill-rule="evenodd" clip-rule="evenodd" stroke-linejoin="round" stroke-miterlimit="1.414">
  <path class="cls-1" d="m13.111 13.52-2.4165 2.4165v-2.4165h-1.4499v-11.116l6.2781 0.081683 0.0048-0.081683v11.116zm0.96661-9.6661h-3.3831v8.683l0.4833 0.01643v0.96661l1.8622-0.99174 1.0377 0.02513zm-8.2162 4.833c-0.5036 0.00485-0.52003-0.10584-0.54275 0.43739-0.0145 0.34556-0.12131 0.68677-0.18656 1.0299l-0.42821 1.3769c-0.34701 0.90523-0.73945 1.7848-1.3798 2.5378-0.63506 0.74574-1.4997 0.84965-2.3938 0.88106-0.13919 0.0048-0.33203 0.02707-0.38181-0.15562-0.046397-0.17157 0.12228-0.26098 0.23199-0.34943 0.94196-0.76169 1.6051-1.3165 2.1811-2.375 0.46687-0.85738 0.81388-1.4518 0.96661-2.4165 0.065246-0.41322-0.089895-0.97772-0.4833-0.96661-0.73075 0.020781-2.1686-0.00727-2.8998 0-0.023682-0.00242 0.064762-0.23392 0.14064-0.47557 0.15659-0.5268 0.52293-0.95694 0.93326-0.94921 0.63748 0.011596 0.70562-0.045428 1.3426-0.025131 0.40356 0.01305 0.97096-0.063798 0.96661-0.4833-0.00967-0.94728-0.026582-1.953 0-2.8998 0.007731-0.27162 0.19042-0.38326-0.066696-0.40453-0.83563-0.068148-0.91779-0.029966-1.3131 0.73462-0.32285 0.62298-0.98884 0.97627-1.663 1.1435-0.36393 0.090383-0.32671 0.077817-0.28032-0.031893 0.53357-1.2532 1.113-2.8515 1.6186-4.1105 0.20782-0.51713 1.0874-0.89459 1.5964-1.1851 0 0 0.11889-0.086028 0.00241 0.27548-0.12518 0.38954-0.29143 1.0976-0.43014 1.4818-0.14547 0.40163-0.072979 0.60945 0.33735 0.60606 1.2189-0.010154 2.505 0 3.7243 0 0.28757 0 0.53212-0.048324 0.71239 0.25615 0.58625 0.98884 0.45334 0.82162-0.11696 0.8308-0.48765 0.00773-1.2174-0.063313-1.7046-0.079744-0.36876-0.012566-0.88976 0.18849-0.90668 0.57851-0.04543 1.0575-0.074428 1.8375-0.05993 2.8046 0.00532 0.34363 0.72302 0.48379 0.96661 0.4833 0.63748-9.67e-4 0.71964 0.014019 1.3571 0.025131 0.52052 0.00865 0.87768 0.43062 1.0594 0.94148 0.01305 0.16142 0.13001 0.43932 0 0.4833-0.66551-0.00681-2.2435-0.00623-2.8998 0zm1.9332 3.8664c0.18994 0.28176 0.21459 0.7844 0 1.4499-0.042531 0.13243-0.3011 0.06621-0.58093-0.25277-0.67614-0.77135-1.2962-1.5891-1.9501-2.3788-0.18269-0.22087-0.2924-0.34605-0.37601-0.37166l0.97386-0.86318c0.44561 0.52632 1.4886 1.8897 1.9332 2.4165z" fill="#828282" fill-rule="evenodd" stroke-width=".4833"/>
</symbol>
</svg>
