<svg xmlns="http://www.w3.org/2000/svg" xmlns:xlink="http://www.w3.org/1999/xlink">

<symbol id="dribbble" fill-rule="evenodd" clip-rule="evenodd" stroke-linejoin="round" stroke-miterlimit="1.414"><path d="M8 16c-4.41 0-8-3.59-8-8s3.59-8 8-8 8 3.59 8 8-3.59 8-8 8zm6.747-6.905c-.234-.074-2.115-.635-4.257-.292.894 2.456 1.258 4.456 1.328 4.872 1.533-1.037 2.624-2.68 2.93-4.58zM10.67 14.3c-.102-.6-.5-2.688-1.46-5.18l-.044.014C5.312 10.477 3.93 13.15 3.806 13.4c1.158.905 2.614 1.444 4.194 1.444.947 0 1.85-.194 2.67-.543zm-7.747-1.72c.155-.266 2.03-3.37 5.555-4.51.09-.03.18-.056.27-.08-.173-.39-.36-.778-.555-1.16-3.413 1.02-6.723.977-7.023.97l-.003.208c0 1.755.665 3.358 1.756 4.57zM1.31 6.61c.307.005 3.122.017 6.318-.832-1.132-2.012-2.353-3.705-2.533-3.952-1.912.902-3.34 2.664-3.784 4.785zM6.4 1.368c.188.253 1.43 1.943 2.548 4 2.43-.91 3.46-2.293 3.582-2.468C11.323 1.827 9.736 1.176 8 1.176c-.55 0-1.087.066-1.6.19zm6.89 2.322c-.145.194-1.29 1.662-3.816 2.694.16.325.31.656.453.99.05.117.1.235.147.352 2.274-.286 4.533.172 4.758.22-.015-1.613-.59-3.094-1.543-4.257z"/></symbol>

<symbol id="facebook" fill-rule="evenodd" clip-rule="evenodd" stroke-linejoin="round" stroke-miterlimit="1.414"><path d="M15.117 0H.883C.395 0 0 .395 0 .883v14.234c0 .488.395.883.883.883h7.663V9.804H6.46V7.39h2.086V5.607c0-2.066 1.262-3.19 3.106-3.19.883 0 1.642.064 1.863.094v2.16h-1.28c-1 0-1.195.48-1.195 1.18v1.54h2.39l-.31 2.42h-2.08V16h4.077c.488 0 .883-.395.883-.883V.883C16 .395 15.605 0 15.117 0" fill-rule="nonzero"/></symbol>

<symbol id="flickr" fill-rule="evenodd" clip-rule="evenodd" stroke-linejoin="round" stroke-miterlimit="1.414"><path d="M0 8c0 2.05 1.662 3.71 3.71 3.71 2.05 0 3.713-1.66 3.713-3.71S5.76 4.29 3.71 4.29C1.663 4.29 0 5.95 0 8zm8.577 0c0 2.05 1.662 3.71 3.712 3.71C14.33 11.71 16 10.05 16 8s-1.662-3.71-3.71-3.71c-2.05 0-3.713 1.66-3.713 3.71z"/></symbol>

<symbol id="github" fill-rule="evenodd" clip-rule="evenodd" stroke-linejoin="round" stroke-miterlimit="1.414"><path d="M8 0C3.58 0 0 3.582 0 8c0 3.535 2.292 6.533 5.47 7.59.4.075.547-.172.547-.385 0-.19-.007-.693-.01-1.36-2.226.483-2.695-1.073-2.695-1.073-.364-.924-.89-1.17-.89-1.17-.725-.496.056-.486.056-.486.803.056 1.225.824 1.225.824.714 1.223 1.873.87 2.33.665.072-.517.278-.87.507-1.07-1.777-.2-3.644-.888-3.644-3.953 0-.873.31-1.587.823-2.147-.09-.202-.36-1.015.07-2.117 0 0 .67-.215 2.2.82.64-.178 1.32-.266 2-.27.68.004 1.36.092 2 .27 1.52-1.035 2.19-.82 2.19-.82.43 1.102.16 1.915.08 2.117.51.56.82 1.274.82 2.147 0 3.073-1.87 3.75-3.65 3.947.28.24.54.73.54 1.48 0 1.07-.01 1.93-.01 2.19 0 .21.14.46.55.38C13.71 14.53 16 11.53 16 8c0-4.418-3.582-8-8-8"/></symbol>

<symbol id="googleplus" fill-rule="evenodd" clip-rule="evenodd" stroke-linejoin="round" stroke-miterlimit="1.414"><path d="M5.09 7.273v1.745h2.89c-.116.75-.873 2.197-2.887 2.197-1.737 0-3.155-1.44-3.155-3.215S3.353 4.785 5.09 4.785c.99 0 1.652.422 2.03.786l1.382-1.33c-.887-.83-2.037-1.33-3.41-1.33C2.275 2.91 0 5.19 0 8s2.276 5.09 5.09 5.09c2.94 0 4.888-2.065 4.888-4.974 0-.334-.036-.59-.08-.843H5.09zm10.91 0h-1.455V5.818H13.09v1.455h-1.454v1.454h1.455v1.455h1.46V8.727H16"/></symbol>

<symbol id="instagram" fill-rule="evenodd" clip-rule="evenodd" stroke-linejoin="round" stroke-miterlimit="1.414"><path d="M8 0C5.827 0 5.555.01 4.702.048 3.85.088 3.27.222 2.76.42c-.526.204-.973.478-1.417.923-.445.444-.72.89-.923 1.417-.198.51-.333 1.09-.372 1.942C.008 5.555 0 5.827 0 8s.01 2.445.048 3.298c.04.852.174 1.433.372 1.942.204.526.478.973.923 1.417.444.445.89.72 1.417.923.51.198 1.09.333 1.942.372.853.04 1.125.048 3.298.048s2.445-.01 3.298-.048c.852-.04 1.433-.174 1.942-.372.526-.204.973-.478 1.417-.923.445-.444.72-.89.923-1.417.198-.51.333-1.09.372-1.942.04-.853.048-1.125.048-3.298s-.01-2.445-.048-3.298c-.04-.852-.174-1.433-.372-1.942-.204-.526-.478-.973-.923-1.417-.444-.445-.89-.72-1.417-.923-.51-.198-1.09-.333-1.942-.372C10.445.008 10.173 0 8 0zm0 1.44c2.136 0 2.39.01 3.233.048.78.036 1.203.166 1.485.276.374.145.64.318.92.598.28.28.453.546.598.92.11.282.24.705.276 1.485.038.844.047 1.097.047 3.233s-.01 2.39-.05 3.233c-.04.78-.17 1.203-.28 1.485-.15.374-.32.64-.6.92-.28.28-.55.453-.92.598-.28.11-.71.24-1.49.276-.85.038-1.1.047-3.24.047s-2.39-.01-3.24-.05c-.78-.04-1.21-.17-1.49-.28-.38-.15-.64-.32-.92-.6-.28-.28-.46-.55-.6-.92-.11-.28-.24-.71-.28-1.49-.03-.84-.04-1.1-.04-3.23s.01-2.39.04-3.24c.04-.78.17-1.21.28-1.49.14-.38.32-.64.6-.92.28-.28.54-.46.92-.6.28-.11.7-.24 1.48-.28.85-.03 1.1-.04 3.24-.04zm0 2.452c-2.27 0-4.108 1.84-4.108 4.108 0 2.27 1.84 4.108 4.108 4.108 2.27 0 4.108-1.84 4.108-4.108 0-2.27-1.84-4.108-4.108-4.108zm0 6.775c-1.473 0-2.667-1.194-2.667-2.667 0-1.473 1.194-2.667 2.667-2.667 1.473 0 2.667 1.194 2.667 2.667 0 1.473-1.194 2.667-2.667 2.667zm5.23-6.937c0 .53-.43.96-.96.96s-.96-.43-.96-.96.43-.96.96-.96.96.43.96.96z"/></symbol>

<symbol id="linkedin" fill-rule="evenodd" clip-rule="evenodd" stroke-linejoin="round" stroke-miterlimit="1.414"><path d="M13.632 13.635h-2.37V9.922c0-.886-.018-2.025-1.234-2.025-1.235 0-1.424.964-1.424 1.96v3.778h-2.37V6H8.51v1.04h.03c.318-.6 1.092-1.233 2.247-1.233 2.4 0 2.845 1.58 2.845 3.637v4.188zM3.558 4.955c-.762 0-1.376-.617-1.376-1.377 0-.758.614-1.375 1.376-1.375.76 0 1.376.617 1.376 1.375 0 .76-.617 1.377-1.376 1.377zm1.188 8.68H2.37V6h2.376v7.635zM14.816 0H1.18C.528 0 0 .516 0 1.153v13.694C0 15.484.528 16 1.18 16h13.635c.652 0 1.185-.516 1.185-1.153V1.153C16 .516 15.467 0 14.815 0z" fill-rule="nonzero"/></symbol>

<symbol id="pinterest" fill-rule="evenodd" clip-rule="evenodd" stroke-linejoin="round" stroke-miterlimit="1.414"><path d="M8 0C3.582 0 0 3.582 0 8c0 3.39 2.108 6.285 5.084 7.45-.07-.633-.133-1.604.028-2.295.146-.625.938-3.977.938-3.977s-.24-.48-.24-1.188c0-1.11.646-1.943 1.448-1.943.683 0 1.012.513 1.012 1.127 0 .687-.436 1.713-.662 2.664-.19.797.4 1.445 1.185 1.445 1.42 0 2.514-1.498 2.514-3.662 0-1.91-1.376-3.25-3.342-3.25-2.276 0-3.61 1.71-3.61 3.47 0 .69.263 1.43.593 1.83.066.08.075.15.057.23-.06.25-.196.8-.223.91-.035.15-.115.18-.268.11C3.516 10.46 2.89 9 2.89 7.82c0-2.52 1.834-4.84 5.287-4.84 2.774 0 4.932 1.98 4.932 4.62 0 2.76-1.74 4.98-4.16 4.98-.81 0-1.57-.42-1.84-.92l-.5 1.9c-.18.698-.67 1.57-1 2.1.75.23 1.54.357 2.37.357 4.41 0 8-3.58 8-8s-3.59-8-8-8z" fill-rule="nonzero"/></symbol>

<symbol id="rss" fill-rule="evenodd" clip-rule="evenodd" stroke-linejoin="round" stroke-miterlimit="1.414"><path d="M12.8 16C12.8 8.978 7.022 3.2 0 3.2V0c8.777 0 16 7.223 16 16h-3.2zM2.194 11.61c1.21 0 2.195.985 2.195 2.196 0 1.21-.99 2.194-2.2 2.194C.98 16 0 15.017 0 13.806c0-1.21.983-2.195 2.194-2.195zM10.606 16h-3.11c0-4.113-3.383-7.497-7.496-7.497v-3.11c5.818 0 10.606 4.79 10.606 10.607z"/></symbol>

<symbol id="stackoverflow" class="svg-icon" xmlns="http://www.w3.org/2000/svg" fill-rule="evenodd" clip-rule="evenodd" stroke-linejoin="round" stroke-miterlimit="1.414"><path d="M12.658 14.577v-4.27h1.423V16H1.23v-5.693h1.42v4.27h10.006zm-8.583-1.423h7.16V11.73h-7.16v1.424zm.173-3.235l6.987 1.46.3-1.38L4.55 8.54l-.302 1.38zm.906-3.37l6.47 3.02.602-1.3-6.47-3.02-.602 1.29zm1.81-3.19l5.478 4.57.906-1.08L7.87 2.28l-.9 1.078zM10.502 0L9.338.863l4.27 5.735 1.164-.862L10.5 0z"/></symbol>

<symbol id="twitter" fill-rule="evenodd" clip-rule="evenodd" stroke-linejoin="round" stroke-miterlimit="1.414"><path d="M16 3.038c-.59.26-1.22.437-1.885.517.677-.407 1.198-1.05 1.443-1.816-.634.37-1.337.64-2.085.79-.598-.64-1.45-1.04-2.396-1.04-1.812 0-3.282 1.47-3.282 3.28 0 .26.03.51.085.75-2.728-.13-5.147-1.44-6.766-3.42C.83 2.58.67 3.14.67 3.75c0 1.14.58 2.143 1.46 2.732-.538-.017-1.045-.165-1.487-.41v.04c0 1.59 1.13 2.918 2.633 3.22-.276.074-.566.114-.865.114-.21 0-.41-.02-.61-.058.42 1.304 1.63 2.253 3.07 2.28-1.12.88-2.54 1.404-4.07 1.404-.26 0-.52-.015-.78-.045 1.46.93 3.18 1.474 5.04 1.474 6.04 0 9.34-5 9.34-9.33 0-.14 0-.28-.01-.42.64-.46 1.2-1.04 1.64-1.7z" fill-rule="nonzero"/></symbol>

<symbol id="youtube" fill-rule="evenodd" clip-rule="evenodd" stroke-linejoin="round" stroke-miterlimit="1.414"><path d="M0 7.345c0-1.294.16-2.59.16-2.59s.156-1.1.636-1.587c.608-.637 1.408-.617 1.764-.684C3.84 2.36 8 2.324 8 2.324s3.362.004 5.6.166c.314.038.996.04 1.604.678.48.486.636 1.588.636 1.588S16 6.05 16 7.346v1.258c0 1.296-.16 2.59-.16 2.59s-.156 1.102-.636 1.588c-.608.638-1.29.64-1.604.678-2.238.162-5.6.166-5.6.166s-4.16-.037-5.44-.16c-.356-.067-1.156-.047-1.764-.684-.48-.487-.636-1.587-.636-1.587S0 9.9 0 8.605v-1.26zm6.348 2.73V5.58l4.323 2.255-4.32 2.24z"/></symbol>

<symbol id="mastodon" fill-rule="evenodd" clip-rule="evenodd" stroke-linejoin="round" stroke-miterlimit="1.414">
  <path transform="scale(0.07)" d="M211.80734 139.0875c-3.18125 16.36625-28.4925 34.2775-57.5625 37.74875-15.15875 1.80875-30.08375 3.47125-45.99875 2.74125-26.0275-1.1925-46.565-6.2125-46.565-6.2125 0 2.53375.15625 4.94625.46875 7.2025 3.38375 25.68625 25.47 27.225 46.39125 27.9425 21.11625.7225 39.91875-5.20625 39.91875-5.20625l.8675 19.09s-14.77 7.93125-41.08125 9.39c-14.50875.7975-32.52375-.365-53.50625-5.91875C9.23234 213.82 1.40609 165.31125.20859 116.09125c-.365-14.61375-.14-28.39375-.14-39.91875 0-50.33 32.97625-65.0825 32.97625-65.0825C49.67234 3.45375 78.20359.2425 107.86484 0h.72875c29.66125.2425 58.21125 3.45375 74.8375 11.09 0 0 32.975 14.7525 32.975 65.0825 0 0 .41375 37.13375-4.59875 62.915"/>
  <path transform="scale(0.07)" fill="#FFF" d="M177.50984 80.077v60.94125h-24.14375v-59.15c0-12.46875-5.24625-18.7975-15.74-18.7975-11.6025 0-17.4175 7.5075-17.4175 22.3525v32.37625H96.20734V85.42325c0-14.845-5.81625-22.3525-17.41875-22.3525-10.49375 0-15.74 6.32875-15.74 18.7975v59.15H38.90484V80.077c0-12.455 3.17125-22.3525 9.54125-29.675 6.56875-7.3225 15.17125-11.07625 25.85-11.07625 12.355 0 21.71125 4.74875 27.8975 14.2475l6.01375 10.08125 6.015-10.08125c6.185-9.49875 15.54125-14.2475 27.8975-14.2475 10.6775 0 19.28 3.75375 25.85 11.07625 6.36875 7.3225 9.54 17.22 9.54 29.675"/>
</symbol>

<symbol id="bilibili" fill-rule="evenodd" clip-rule="evenodd" stroke-linejoin="round" stroke-miterlimit="1.414">
  <g transform="matrix(.035362 0 0 .035362 -.77955 -8.8369)" fill="#828282">
   <path d="m94.383 347.81c0 11.7-0.2 23.4 0 35.1 0.5 23.9 1 47.9 1.8 71.8 0.3 10.4 1.1 20.9 1.8 31.3 0.4 5.5 1 10.9 1.6 16.3 0.4 3.8 0.8 7.6 1.6 11.4 1 5 2.2 9.9 3.5 14.8 0.7 2.6 1.6 3 4.3 2.4 0.2 0 0.4-0.1 0.6-0.1 10-0.3 20-0.7 29.9-0.8 4.8 0 9.7 0.3 14.4 0.9 6.2 0.7 12.3 1.8 18.5 2.8 7 1.1 13.9 2.3 20.8 3.6 4 0.8 8 1.9 11.9 2.9 4.4 1.1 8.8 2.3 13.2 3.6 3.9 1.1 7.9 2.4 11.7 3.7 4.1 1.4 8.2 2.9 12.2 4.6 3.5 1.5 7 3.3 10.4 4.9 6.5 3.1 12.5 6.9 18.2 11.3 3.9 3.1 7.5 6.6 9.8 11 2.6 5 3.4 10.6 2.7 16.2-0.9 6.8-3.2 13.1-6.9 18.9-3.9 6-8.7 11.2-14.1 15.8-8.4 7.2-17.9 12.9-27.8 17.6-7 3.3-14.4 6-21.7 8.8-4.2 1.6-8.4 3-12.7 4.3-4.4 1.3-8.8 2.4-13.2 3.5-4.3 1.1-8.6 2.3-12.9 3.2-3.5 0.8-7 1.2-10.6 1.9-4.1 0.8-8.1 1.7-12.3 2.3-6 0.9-12 1.8-18 2.5-7.2 0.9-14.5 1.8-21.8 2.6-3.6 0.4-7.1 0.6-10.7 0.8-8.1 0.5-16.3 1.1-24.4 1.6-3 0.2-3 0-3.2-3-0.5-8.5-1.1-16.9-1.6-25.4-0.5-7.3-1-14.6-1.5-21.8-0.7-9-1.4-18.1-2.1-27.1-0.5-5.9-0.8-11.9-1.3-17.8-0.8-9.2-1.7-18.3-2.6-27.5-0.4-4.4-0.8-8.7-1.3-13.1-0.7-5.9-1.5-11.7-2.2-17.6-0.7-5.8-1.1-11.7-1.8-17.5-0.6-5.4-1.5-10.9-2.2-16.3-0.9-6.7-1.8-13.3-2.8-20-0.9-5.7-2-11.4-2.9-17.1-0.7-4.4-1.2-8.8-1.8-13.1-0.7-4.7-1.6-9.4-2.4-14.1-1.1-6.8-2.3-13.5-3.4-20.3-0.8-5.1-1.6-10.1-2.5-15.2-1.4-7.2-2.9-14.4-4.3-21.7-0.8-4.4-1.5-8.8-2.3-13.1s-1.8-8.6-2.7-13c-0.7-3.4-1.3-6.9-2-10.3-0.9-4.5-1.8-8.9-2.7-13.4-1-4.9-2.1-9.8-3-14.8-0.4-1.9 1-2.5 2.4-3 5.4-2 10.7-4 16.1-6 5-1.9 10-3.7 15-5.5 3.8-1.4 7.7-2.9 11.5-4.4 5.1-1.9 10.1-3.7 15.2-5.6 2.1-0.8 4.1-1.6 6.2-2.3 1-0.4 2.1-0.8 3.2-1 1.9-0.4 2.4 0.1 2.3 2-0.2 5.6-0.3 11.2-0.5 16.9-0.1 4.3-0.1 8.5-0.1 12.8v37.5c-0.3 0.3-0.4 0.3-0.5 0.3zm46.8 225.3c-3.4-0.1-3.9 0.5-3.6 3 0.3 2.1 0.7 4.2 1 6.4 0.4 2.4 0.6 4.9 1 7.3 0.7 4.4 1.4 8.7 2.1 13.1 0.8 5.5 1.5 11.1 2.2 16.7 0.9 6.3 1.9 12.6 2.8 19 0.3 1.8 1.7 2.4 3.2 1.4 0.5-0.3 0.9-0.8 1.4-1.1 7.1-5.2 14.1-10.4 21.2-15.6 5.4-4 10.8-8.1 16.3-12.1 4.9-3.6 9.8-7 14.7-10.7 2-1.5 1.8-2.3-0.3-3.3-0.9-0.4-1.8-0.8-2.7-1.2-5.3-2.2-10.5-4.4-15.8-6.6-6-2.6-12-5.3-18.1-7.7-5.9-2.3-12-4.4-18-6.4-2.7-1.2-5.5-1.7-7.4-2.2z"/>
   <path d="m367.88 323.61c2.3 0.2 5.7 0.5 9.1 1 2 0.3 2.8 1.8 3 3.6 0.3 2.8 0.6 5.6 0.7 8.4 0.6 10.4 1.2 20.7 1.8 31.1 0.5 7.8 1.1 15.6 1.7 23.4 0.7 9.4 1.6 18.7 2.3 28.1 1.1 13.7 2.1 27.4 3.1 41 1 13 1.9 25.9 2.8 38.9 0.5 7.5 1 15.1 1.7 22.6 0.9 10.5 2 20.9 2.8 31.4 0.8 10.2 1.4 20.3 2.2 30.5 0.7 9.6 1.6 19.3 2.3 28.9 0.4 5.3 0.6 10.6 0.9 15.9 0.1 0.9 0.4 1.8 0.6 2.7 0.4 1.7-0.2 2.5-2 2.8-7.7 1.3-15.3 1.7-23.1 0.7-1.7-0.2-3.4-0.3-5-0.8-0.7-0.2-1.6-1.1-1.6-1.7-0.7-6.6-1.2-13.3-1.9-19.9-0.7-7.5-1.5-14.9-2.3-22.4-0.3-3.1-0.5-6.3-0.8-9.4-0.6-7.3-1.1-14.5-1.9-21.8-0.8-7.2-1.9-14.3-2.8-21.5-0.8-7.1-1.3-14.2-2.2-21.2-0.9-7.3-2-14.6-2.9-21.9-0.7-5.6-1.2-11.3-1.9-16.9-0.8-6.2-1.9-12.3-2.8-18.5 0-0.3-0.1-0.5-0.1-0.8-0.7-5.7-1.3-11.4-2.1-17.1-1-7.4-2.1-14.7-3.3-22.1-0.7-4.8-1.6-9.5-2.3-14.2-0.8-5.5-1.5-10.9-2.5-16.4-1.4-8-2.9-16-4.3-24.1-0.8-4.8-1.4-9.7-2.3-14.5-0.8-4.3-1.7-8.5-2.6-12.8-0.5-2.6-1.1-5.1-1.4-7.7-0.1-0.6 0.5-1.7 1-1.9 1.2-0.5 2.6-0.7 4-0.8 8-0.8 16.1-1.5 24.1-2.2 2.4-0.2 4.7-0.2 8-0.4z"/>
   <path d="m346.48 642.41c0.1 5.8 0 4.9-5.7 5.9-6.7 1.2-13.5 2.1-20.2 3-2.9 0.4-5.8 0.7-8.7 1-1.5 0.2-2-0.8-2.2-2-0.9-4.7-1.7-9.5-2.6-14.2-0.7-3.5-1.5-7-2.2-10.5-0.9-4.3-1.7-8.6-2.5-12.9-0.9-4.4-1.7-8.7-2.6-13.1-0.9-4.5-1.6-9-2.5-13.4-0.7-3.6-1.5-7.1-2.2-10.7-0.8-4.1-1.7-8.2-2.4-12.3-1.3-7.1-2.4-14.2-3.7-21.2-0.9-4.6-2-9.1-2.8-13.7-0.7-4-1.2-8.1-1.9-12.1-0.7-4.3-1.5-8.6-2.2-12.9-0.7-4.1-1.4-8.1-2-12.2-0.4-2.4 0-2.8 2.4-3.3 5.6-1.1 11.2-2 16.7-3.3 6.4-1.6 13-1.9 19.5-2.4 2.2-0.1 4.4-0.1 6.5 0.1 2.4 0.2 4.1 2 4.5 4.7 1.2 7.8 2.5 15.6 3.6 23.4 0.9 6.1 1.7 12.2 2.4 18.4 0.9 7.9 1.5 15.8 2.4 23.7 1 10 2.2 20 3.2 30 0.8 8.1 1.3 16.2 1.9 24.2 0.6 7.5 1 14.9 1.7 22.4 0.4 4.6 1.1 9 1.6 13.4z"/>
   <path d="m473.08 584.81v55.4c0 4.8-0.4 9.5-0.5 14.3 0 1.2-0.6 1.8-1.7 2-0.5 0.1-0.9 0.1-1.4 0.2-7.2 0.3-14.5 0.7-21.7 1-3 0.2-6 0.5-9 0.6-2.6 0.1-3-0.3-3.2-2.8-0.3-3.6-0.5-7.3-0.9-11-0.5-5.8-1.1-11.7-1.7-17.5-0.7-7.1-1.6-14.2-2.3-21.4-1.2-12-2.4-23.9-3.5-35.9-0.9-9.4-1.6-18.9-2.4-28.3-0.6-6.6-1.1-13.2-1.6-19.9-0.6-8.4-1.2-16.8-1.8-25.1v-1.8c0.2-2.7 0.6-3 3.4-3.2 8.1-0.7 16.1-1.6 24.2-2.1 4.5-0.3 9 0.1 13.5 0.3 2 0.1 4 0.4 5.9 1.1 0.9 0.3 2 1.5 2.2 2.5 0.8 3.9 1.6 7.8 1.7 11.8 0.6 26.6 1 53.2 1.5 79.8z"/>
   <path d="m444.78 428.21v-21.8c0-2.5 0.2-2.8 2.7-2.6 5.7 0.3 11.4 0.4 17 1.1 3.7 0.4 4.4 0.6 4.4 4.5-0.3 18-0.4 36-0.9 53.9-0.2 6.5 0.4 5.5-5.4 5-4.9-0.4-9.9-1-14.8-1.6-1.3-0.1-1.5-1-1.6-2.1-0.2-5.7-0.6-11.5-0.7-17.2-0.1-6.4 0-12.8 0-19.2z"/>
   <path d="m307.08 397.91h8.8c2.5 0 3 0.4 3.3 2.9 0.6 5.6 1.1 11.2 1.6 16.8 0.9 10.2 1.7 20.3 2.5 30.5 0.2 2.7 0.2 5.5 0.4 8.2 0 0.6 0.1 1.3 0.3 1.9 0.6 2.5 0.2 3-2.4 3-5.8-0.1-11.6-0.2-17.4-0.2-1.3 0-1.8-0.6-1.9-1.7-0.4-2.6-0.9-5.3-1.2-7.9-0.8-6.7-1.5-13.5-2.2-20.3l-1.5-14.4c-0.5-5.1-1.1-10.2-1.6-15.3 0-0.3-0.1-0.7-0.1-1-0.4-1.8-0.1-2.3 1.9-2.4 3 0 6.2 0 9.5-0.1z"/>
   <path d="m430.08 404.71h2c1.7-0.1 2.5 0.7 2.6 2.4 0.6 12.5 1.1 25.1 1.8 37.6 0.3 6.6 1 13.2 1.4 19.7 0.2 3.1-0.1 3.3-3.3 3.4-4 0.2-8 0.5-11.9 0.7-2.8 0.2-3.4-0.2-3.7-2.9-0.8-7.5-1.5-15.1-2.3-22.6-0.5-5.5-1.1-10.9-1.6-16.4-0.5-4.7-1-9.3-1.6-14-0.1-1.2-0.7-2.3-0.5-3.4 0.1-0.8 1-2.1 1.7-2.2 5.2-1 10.4-1.8 15.6-2.6-0.2 0.1-0.2 0.2-0.2 0.3z"/>
   <path d="m277.08 465.41c-0.5-0.5-1.5-1.2-1.8-2.1-0.9-3.5-1.6-7-2.3-10.5-1.1-5.2-2.1-10.4-3.1-15.6-0.7-3.6-1.4-7.3-2.1-10.9-0.8-3.8-1.7-7.6-2.5-11.4-0.6-2.7-1.2-5.5-1.6-8.2-0.1-0.6 0.7-1.8 1.3-2 5.3-1.5 10.5-2.8 15.8-4.1 3.4-0.8 4.4-0.1 4.9 4 0.7 4.9 1.1 9.8 1.8 14.7 0.8 5.4 1.9 10.8 2.7 16.2 0.8 5.6 1.5 11.1 2.3 16.7 0.3 2.3 0.9 4.5 1.3 6.7 0.5 2.6 0 3.8-2.4 4.2-4.5 0.9-9.1 1.5-14.3 2.3z"/>
   <path d="m73.878 677.87c-0.2572-0.81922-1.0389-10.815-1.7371-22.214-7.0202-114.61-18.069-199.59-40.856-314.22-3.919-19.716-6.7916-36.206-6.3836-36.644 0.94715-1.0175 66.351-25.498 68.169-25.515 1.0533-0.0101 1.3304 15.831 1.2296 70.281-0.17672 95.401 2.3419 148.92 8.0993 172.11 1.2066 4.8596 2.1939 9.0155 2.1939 9.2353 0 0.21982 10.964 0.31673 24.365 0.21537 22.795-0.17242 25.701 0.0464 45.089 3.3949 50.14 8.6594 85.827 22.58 101.51 39.598 5.8781 6.3769 7.5886 11.549 6.8525 20.719-2.2043 27.461-36.052 52.762-90.325 67.519-25.6 6.9608-68.786 13.659-97.577 15.135-7.7015 0.3947-15.389 0.97895-17.084 1.2983-1.9984 0.37658-3.2459 0.0571-3.5492-0.9088zm101.07-55.434c28.175-20.677 31.462-23.413 29.864-24.852-1.6068-1.4461-39.902-17.404-51.299-21.376-5.4402-1.8963-11.363-3.4478-13.163-3.4478-3.9152 0-3.9805 0.60606-1.6299 15.123 0.89789 5.5451 2.9426 19.379 4.5438 30.742 3.0054 21.328 3.2666 22.468 5.1444 22.468 0.61357 0 12.556-8.3961 26.539-18.658z" fill-rule="evenodd" stroke-width="1.1202"/>
   <path d="m436.71 656.44c-1.4553-4.1194-13.398-134.69-14.208-155.34l-0.32807-8.3634 4.4809-0.79426c7.8827-1.3972 31.391-2.4176 36.847-1.5994 4.3033 0.64531 5.5034 1.3447 6.511 3.7946 1.8618 4.5268 2.9087 57.001 2.2441 112.49l-0.58681 48.992-3.4638 0.51912c-1.9051 0.28552-9.6639 0.77392-17.242 1.0853-10.159 0.41746-13.903 0.21213-14.254-0.78163z" fill-rule="evenodd" stroke-width="1.1202"/>
   <path d="m373.93 633.29c-2.5118-1.0166-2.1066 1.9402-6.6072-48.21-2.436-27.144-10.274-92.75-16.862-141.15-2.9445-21.63-14.948-94.672-17.732-107.9-1.5766-7.4907-1.5616-7.6521 0.79208-8.5191 4.1609-1.5327 33.17-3.6646 38.984-2.8649 4.2709 0.58741 5.7746 1.3255 6.4604 3.1712 0.4916 1.323 1.238 9.2109 1.6588 17.529 0.69191 13.679 5.9835 85.466 11.932 161.87 5.3252 68.401 8.7716 113.55 9.1027 119.25 0.33074 5.693 0.16494 6.1601-2.4458 6.8897-3.956 1.1056-22.502 1.0512-25.283-0.0743z" fill-rule="evenodd" stroke-width="1.1202"/>
   <path d="m310.21 649.77c-0.36902-1.181-13.707-70.322-20.8-107.82-3.7782-19.975-9.0352-52.367-8.5736-52.828 0.24722-0.24723 6.6936-1.6829 14.325-3.1903 14.392-2.8428 31.672-3.6916 32.953-1.6186 2.2986 3.7193 10.971 76.684 14.506 122.05 0.93631 12.014 2.0268 25.975 2.4234 31.025 0.83822 10.672 2.4963 9.4038-15.843 12.115-13.718 2.0281-18.421 2.0947-18.992 0.26905z" fill-rule="evenodd" stroke-width="1.1202"/>
   <path d="m276.03 462.53c-1.7559-4.628-11.454-54.522-10.886-56.004 0.66127-1.7232 15.627-5.7113 18.006-4.7983 0.91462 0.35097 1.8856 3.0792 2.3354 6.5616 0.42338 3.2785 2.2648 15.743 4.092 27.699s3.1714 22.784 2.987 24.063c-0.28038 1.945-1.5878 2.5304-7.9892 3.577-7.3196 1.1968-7.6929 1.1488-8.5457-1.0988z" fill-rule="evenodd" stroke-width="1.1202"/>
   <path d="m303.65 459.9c-1.6242-2.8951-7.9756-59.1-6.8791-60.874 0.8288-1.341 20.341-1.3216 21.171 0.0211 0.7746 1.2533 5.0633 48.848 5.0797 56.373l0.0116 5.3211h-9.4558c-5.2007 0-9.6679-0.37808-9.9271-0.84017z" fill-rule="evenodd" stroke-width="1.1202"/>
   <path d="m419.38 465.41c0-1.1786-1.273-14.395-2.8288-29.369s-2.438-27.571-1.9604-27.992c1.5106-1.3332 17.434-3.4487 18.434-2.449 0.86767 0.86766 2.9275 32.075 3.4915 52.897l0.22756 8.4017-8.6817 0.32718c-7.9173 0.29837-8.6817 0.13849-8.6817-1.8158z" fill-rule="evenodd" stroke-width="1.1202"/>
   <path d="m456.91 467.2c-4.9235-0.52351-9.271-1.3092-9.6611-1.7459-0.39007-0.43675-1.0443-14.34-1.4539-30.896l-0.74472-30.102 10.406 0.45567c5.7232 0.25063 11.017 0.83405 11.765 1.2965 1.0377 0.64193 1.2028 7.92 0.69791 30.766-0.36374 16.459-0.97541 30.207-1.3592 30.551-0.38385 0.34414-4.7262 0.19738-9.6498-0.32614z" fill-rule="evenodd" stroke-width="1.1202"/>
   <path d="m74.126 676.35c-0.2145-0.98025-1.2973-15.506-2.4062-32.279-5.6522-85.493-12.876-148.98-25.381-223.07-4.0082-23.747-5.8119-33.548-16.22-88.134-2.1911-11.492-4.0658-22.504-4.1658-24.471l-0.18196-3.5772 17.237-6.6559c28.208-10.892 49.262-18.401 49.883-17.792 0.32055 0.3143 0.77136 21.768 1.0018 47.674s0.57676 65.024 0.7696 86.928c0.19285 21.904 0.60359 40.234 0.91276 40.734 0.30917 0.50024 0.48018 2.9174 0.38002 5.3715-0.51944 12.728 3.2529 49.252 6.4646 62.591l1.8118 7.5251 27.307 0.47711c26.114 0.45626 27.91 0.58643 41.095 2.9785 18.461 3.3493 32.946 6.7045 46.809 10.842 33.102 9.8804 56.137 24.119 61.426 37.968 1.8069 4.7313 1.2323 14.778-1.2152 21.245-10.028 26.498-49.901 49.671-105.76 61.462-24.732 5.2213-51.249 8.9083-77.339 10.753-22.445 1.5874-21.957 1.5998-22.432-0.57166zm80.025-38.448c7.7378-5.3482 27.791-19.921 37.158-27.003 9.8562-7.4515 13.876-11.059 13.876-12.453 0-1.6885-9.7636-6.1525-38.692-17.69-14.674-5.8528-20.927-7.7649-25.667-7.8495l-3.7626-0.0672v3.421c0 4.6592 8.6107 62.179 9.579 63.989 0.42583 0.79568 1.0547 1.4467 1.3974 1.4467 0.34277 0 3.0927-1.7069 6.111-3.7931z" fill-rule="evenodd" stroke-width=".79212"/>
   <path d="m276.38 464.65c-0.39366-0.38214-0.7834-0.82561-0.86608-0.9855-0.19101-0.36937-0.77587-2.7459-1.4262-5.7953-1.4109-6.6156-2.3058-11.122-5.6931-28.665-0.35224-1.8243-1.132-5.5448-1.7328-8.2677-2.1375-9.6872-2.8796-13.339-2.8987-14.263-0.0103-0.49917 0.27744-1.0718 0.77504-1.5425 0.35352-0.33439 0.55712-0.40742 2.9541-1.0596 3.3583-0.91369 7.7182-2.0417 11.238-2.9076 3.9298-0.96667 4.7778-0.99906 5.645-0.21562 0.90392 0.81664 1.0904 1.7616 2.1268 10.78 0.81175 7.0633 0.98967 8.2863 2.2902 15.743 0.96099 5.51 1.2819 7.5691 2.0138 12.921 1.6154 11.814 1.7858 12.943 2.4274 16.09 0.82144 4.0282 0.84183 4.842 0.14131 5.6398-0.57995 0.66052-1.2399 0.84291-5.8816 1.6256-1.8231 0.3074-10.192 1.5964-10.365 1.5964-0.0177 0-0.35429-0.31266-0.74795-0.69479zm3.6167-0.30195c1.2274-0.13482 4.2426-0.60235 6.4073-0.99353 3.1943-0.57723 4.7686-1.0902 5.4777-1.7846 0.53917-0.52807 0.64725-0.82874 0.68967-1.9184 0.082-2.1053-0.98996-10.686-3.0056-24.061-1.808-11.997-2.8118-18.755-3.5516-23.912-0.41017-2.859-0.85487-5.6456-0.98822-6.1923-0.5093-2.0879-1.1657-3.4546-1.8053-3.7588-0.21277-0.10121-0.62218-0.14783-1.2872-0.1466-4.0255 7e-3 -14.689 2.9577-16.528 4.5729l-0.36377 0.3194 0.0651 0.79567c0.45656 5.578 7.4759 41.983 10.175 52.772 1.085 4.3368 1.4455 4.6661 4.7151 4.307z" fill-rule="evenodd" stroke-width=".099015"/>
   <path d="m316.7 461.09c-1.9605-0.0405-5.6141-0.0807-8.1192-0.0894-2.7209-0.01-4.7341-0.0571-5.0002-0.11821-0.48444-0.11128-0.91581-0.45881-1.0797-0.86984-0.11972-0.30032-0.99784-5.7602-1.292-8.0333-0.37303-2.8825-1.0865-9.4515-2.4787-22.823-0.76547-7.3518-1.7234-16.553-2.1287-20.447-0.40533-3.8938-0.81015-7.6428-0.89958-8.3312-0.1384-1.0652-0.14261-1.2925-0.0283-1.5258 0.3543-0.72308 1.0215-0.83908 4.689-0.81516 1.4704 0.01 2.3615 0.0312 1.9803 0.0479-1.3694 0.0602-3.9346 0.3298-4.6194 0.48557-1.1587 0.26354-1.1107 0.11917-1.0454 3.1471 0.22631 10.481 5.2323 53.063 6.8137 57.959 0.0885 0.27402 0.17901 0.34296 0.6161 0.46931 1.539 0.44487 5.6136 0.64281 13.26 0.64417l5.7181 9.7e-4 -4.8e-4 -2.9952c-4.8e-4 -3.1651-0.0756-5.0058-0.40003-9.8272-1.1036-16.4-4.0416-47.216-4.6557-48.832-0.11868-0.31216-0.52407-0.47201-1.6767-0.66117-1.5283-0.25082-3.4192-0.37837-6.733-0.45417l-3.119-0.0713 4.8022-0.0115c5.0652-0.0122 6.0616 0.0359 6.6628 0.3212 0.8685 0.41213 1.0316 1.0789 1.5511 6.3401 1.4309 14.491 3.6496 41.517 3.9141 47.676 0.19151 4.4602 0.22161 4.832 0.4689 5.7924 0.11219 0.43567 0.20881 1.1336 0.21471 1.551 0.01 0.67482-0.0159 0.78719-0.22946 1.015-0.1321 0.14092-0.39944 0.30287-0.59409 0.35988-0.51198 0.14994-2.5344 0.17925-6.5918 0.0955z" fill-rule="evenodd" stroke-width=".099015"/>
  </g>
</symbol>

<symbol id="pixiv" fill-rule="evenodd" clip-rule="evenodd" stroke-linejoin="round" stroke-miterlimit="1.414">
  <path d="m2.6019 15.014c-0.11684-0.14078 0.069316-0.3422 0.41082-0.44452l0.25582-0.07665v-5.1896c0-3.2275-0.023909-5.1896-0.063241-5.1896-0.11806 0-1.2583 1.1366-1.4679 1.4632-0.18604 0.28991-0.20379 0.3601-0.16501 0.65242 0.034297 0.25854 0.019896 0.35112-0.068341 0.43935-0.061487 0.061487-0.13215 0.11038-0.15703 0.10866-0.024884-0.0016877-0.26072-0.34579-0.52409-0.76461l-0.47885-0.76148 0.47885-0.44377c1.9231-1.7822 4.3397-2.9913 6.6614-3.3327 1.0745-0.15803 2.5826-0.10351 3.456 0.12496 2.3338 0.61049 3.8635 1.9654 4.4943 3.9807 0.24142 0.77133 0.29549 1.7576 0.13875 2.5311-0.47464 2.3425-2.4275 4.0167-5.2622 4.5113-0.81826 0.14278-2.539 0.090874-3.4499-0.10408-0.58718-0.12567-1.5929-0.39762-1.876-0.50727-0.10861-0.042068-0.11667 0.042353-0.11667 1.2214v1.2666l0.17362 0.04358c0.29573 0.07422 0.50155 0.24472 0.47975 0.39742-0.019521 0.1367-0.054634 0.14059-1.4275 0.15811-1.2002 0.01532-1.42 0.0029-1.4926-0.08459zm7.6002-3.3684c1.3948-0.39368 2.411-1.2174 3-2.4318 0.3609-0.74408 0.49441-1.4614 0.44606-2.3966-0.045257-0.87552-0.16219-1.3433-0.52431-2.0975-0.21763-0.45327-0.37962-0.67117-0.84548-1.1373-0.93356-0.93413-1.8491-1.3246-3.243-1.3832-1.2794-0.05379-2.5479 0.22233-3.6501 0.7945l-0.51668 0.26823v7.8424l0.3781 0.14146c0.57289 0.21435 1.2626 0.38696 1.8553 0.46432 0.29334 0.03828 0.62335 0.08241 0.73335 0.09806 0.49443 0.07033 1.8784-0.02473 2.3667-0.16255z" fill="#828282" fill-rule="evenodd" stroke-width=".066668"/>
</symbol>

<symbol id="zhihu" fill-rule="evenodd" clip-rule="evenodd" stroke-linejoin="round" stroke-miterlimit="1.414">
  <g transform="matrix(.54931 0 0 .54931 3.4315 1.5899)" fill="#828282" fill-rule="evenodd" stroke-width=".059869">
   <path d="m-5.4376 26.219c-0.46853-0.05308-0.7647-0.11969-0.79213-0.17815-0.00886-0.01889 0.23983-0.24563 0.55265-0.50387 0.77487-0.63969 2.0814-1.9623 2.6916-2.7247 1.6546-2.0674 2.7986-4.4347 3.3561-6.9448 0.10942-0.49266 0.35469-2.0437 0.3574-2.2601 7.376e-4 -0.05897-0.69105-0.07484-3.2619-0.07484-2.986 0-3.2629-0.0083-3.2629-0.09832 0-0.18107 0.25137-0.9458 0.4223-1.2847 0.19056-0.37784 0.42653-0.67948 0.6169-0.78857 0.094103-0.05392 0.86945-0.08146 2.9122-0.10342l2.7839-0.02993 0.037662-0.83817c0.020714-0.46099 0.058621-2.1246 0.084237-3.6969l0.046575-2.8587h-2.9363l-0.25562 0.7334c-0.14059 0.40337-0.3501 0.88157-0.46558 1.0627-0.45556 0.71447-1.311 1.373-2.1029 1.6189-0.41408 0.12858-1.1943 0.26591-1.2416 0.21855-0.016022-0.016022 0.06348-0.21374 0.17667-0.43938 0.64825-1.2922 1.5931-3.676 2.3957-6.0439 0.24664-0.72771 0.52207-1.4684 0.61207-1.646 0.24541-0.48429 0.86409-1.0698 1.405-1.3296 0.44598-0.21425 1.0821-0.39834 1.3824-0.40004l0.15595-8.849e-4 -0.45864 1.362c-0.45527 1.352-0.78122 2.4445-0.78122 2.6184 0 0.080141 0.52739 0.090636 4.5547 0.090636h4.5547l0.16976 0.16976c0.22398 0.22398 0.35631 0.68637 0.40119 1.4018l0.03662 0.58372h-5.1474l-0.040189 2.29c-0.022104 1.2595-0.066147 2.7884-0.097873 3.3976-0.031726 0.60917-0.06393 1.2423-0.071565 1.4069l-0.013881 0.29935 2.6882 0.01559c2.6511 0.01538 2.6901 0.01735 2.8241 0.1433 0.2326 0.21852 0.43777 1.0608 0.43875 1.8013l4.79e-4 0.3437-6.1366 0.03102-0.045327 0.50889c-0.065296 0.73307-0.25645 1.7654-0.49765 2.6876-0.11533 0.44097-0.20199 0.82295-0.19257 0.84885 0.00942 0.0259 0.33267-0.20693 0.71833-0.51738 0.38564-0.31046 0.71266-0.56447 0.72668-0.56447 0.04504 0 1.4219 1.5466 2.5997 2.9201 1.2636 1.4736 1.3467 1.6157 1.4575 2.4932 0.03359 0.26608 0.04385 0.67238 0.02278 0.90287-0.04611 0.50465-0.19497 1.4171-0.25976 1.5922-0.0401 0.10839-0.42319-0.32702-2.6992-3.0678-1.4589-1.7568-2.6717-3.2016-2.6951-3.2107-0.023445-0.0091-0.11904 0.24686-0.21244 0.56876-0.49265 1.6978-1.3568 3.6062-2.2035 4.8659-0.41987 0.62471-1.0942 1.4024-1.431 1.6504-1.0194 0.75048-2.529 1.131-3.8797 0.978z"/>
   <path d="m13.671 25.163c-0.06668-0.22226-0.23619-0.8015-0.37669-1.2872l-0.25545-0.88307h-2.3715v-21.732h12.213v21.732h-4.949l-2.0501 1.2872c-1.1276 0.70795-2.0589 1.2872-2.0697 1.2872-0.01078 0-0.07416-0.18185-0.14084-0.40412zm2.6322-3.637 1.3799-0.8681h2.8028v-17.063h-7.3639v17.063h1.1923l0.11838 0.40412c0.06511 0.22226 0.17817 0.61291 0.25124 0.8681 0.07307 0.25519 0.15684 0.46398 0.18614 0.46398 0.02931 0 0.67422-0.39065 1.4331-0.8681z"/>
  </g>
</symbol>
</svg>
